<?xml version="1.0" encoding="UTF-8" standalone="no"?>
<!DOCTYPE svg PUBLIC "-//W3C//DTD SVG 1.1//EN" "http://www.w3.org/Graphics/SVG/1.1/DTD/svg11.dtd">
<svg width="100%" height="100%" viewBox="0 0 5906 5906" version="1.1" xmlns="http://www.w3.org/2000/svg" xmlns:xlink="http://www.w3.org/1999/xlink" xml:space="preserve" xmlns:serif="http://www.serif.com/" style="fill-rule:evenodd;clip-rule:evenodd;stroke-miterlimit:1.5;">
    <g transform="matrix(1,0,0,1,-192149,-64388)">
        <g id="Logo-v13" transform="matrix(0.25541,0,0,0.25541,147449,51543.2)">
            <rect x="175012" y="50291" width="23121.7" height="23121.7" fill="none"/>
            <clipPath id="_clip1">
                <rect x="175012" y="50291" width="23121.7" height="23121.7"/>
            </clipPath>
            <g clip-path="url(#_clip1)">
                <g transform="matrix(3.91527,0,0,3.91527,-308364,-17981)">
                    <text x="124330px" y="21394.6px" style="font-family:'Montserrat-Regular', 'Montserrat';font-size:125px;fill:white;">N<tspan x="124438px 124518px 124609px 124689px 124728px 124776px 124815px 124910px 124994px 125049px 125131px 125222px 125298px 125338px 125418px 125458px 125497px 125545px 125584px 125673px 125741px 125822px 125913px 125990px 126030px " y="21394.6px 21394.6px 21394.6px 21394.6px 21394.6px 21394.6px 21394.6px 21394.6px 21394.6px 21394.6px 21394.6px 21394.6px 21394.6px 21394.6px 21394.6px 21394.6px 21394.6px 21394.6px 21394.6px 21394.6px 21394.6px 21394.6px 21394.6px 21394.6px 21394.6px ">ada / Potencial / Esencia</tspan></text>
                </g>
                <g transform="matrix(3.91527,0,0,3.91527,-291862,-23538.9)">
                    <text x="124354px" y="21394.6px" style="font-family:'Montserrat-Regular', 'Montserrat';font-size:125px;fill:white;">C<tspan x="124447px 124532px 124623px 124670px 124755px 124810px 124949px " y="21394.6px 21394.6px 21394.6px 21394.6px 21394.6px 21394.6px 21394.6px ">onforma</tspan></text>
                </g>
                <g transform="matrix(3.91527,0,0,3.91527,-305826,-28904.3)">
                    <text x="124512px" y="21394.6px" style="font-family:'Montserrat-Regular', 'Montserrat';font-size:125px;fill:white;">L<tspan x="124591px 124676px 124768px 124852px 124920px 124959px 125007px 125046px 125142px 125224px 125264px 125344px 125421px 125461px 125545px 125636px 125675px 125723px 125762px 125858px 125949px 126029px 126069px 126154px 126246px 126286px 126366px 126405px 126453px 126492px 126575px 126615px 126754px 126845px 126929px 126969px " y="21394.6px 21394.6px 21394.6px 21394.6px 21394.6px 21394.6px 21394.6px 21394.6px 21394.6px 21394.6px 21394.6px 21394.6px 21394.6px 21394.6px 21394.6px 21394.6px 21394.6px 21394.6px 21394.6px 21394.6px 21394.6px 21394.6px 21394.6px 21394.6px 21394.6px 21394.6px 21394.6px 21394.6px 21394.6px 21394.6px 21394.6px 21394.6px 21394.6px 21394.6px 21394.6px 21394.6px ">ogos / Relación / Analogía / Símbolo</tspan></text>
                </g>
                <g transform="matrix(3.91527,0,0,3.91527,-299472,-23544)">
                    <text x="124330px" y="21394.6px" style="font-family:'Montserrat-Regular', 'Montserrat';font-size:125px;fill:white;">P<tspan x="124424px 124504px 124562px 124617px 124699px 124738px 124786px 124825px 124908px 124990px 125080px 125160px 125216px " y="21394.6px 21394.6px 21394.6px 21394.6px 21394.6px 21394.6px 21394.6px 21394.6px 21394.6px 21394.6px 21394.6px 21394.6px 21394.6px ">arte / Separa</tspan></text>
                </g>
                <g transform="matrix(2.81932e-16,-4.84692,6.53966,4.2154e-16,-243032,564440)">
                    <path d="M103396,66109.6L103396,67460.1" style="fill:none;stroke:white;stroke-width:93.53px;"/>
                </g>
                <g transform="matrix(2.81932e-16,-4.84692,10.5809,6.82035e-16,-524488,563004)">
                    <path d="M103396,66109.6L103396,67460.1" style="fill:none;stroke:rgb(238,255,0);stroke-width:65.42px;"/>
                </g>
                <g transform="matrix(155.565,0,0,126.473,-8.60662e+06,-223170)">
                    <g transform="matrix(1.87133e-18,-0.0383238,0.0160576,1.37626e-18,55515.3,6216.16)">
                        <path d="M103396,66109.6L103396,67460.1" style="fill:none;stroke:rgb(255,24,0);stroke-opacity:0.76;stroke-width:139.62px;"/>
                    </g>
                    <g transform="matrix(1.87133e-18,-0.0383238,0.0259806,2.22673e-18,54824.2,6216.16)">
                        <path d="M103396,66109.6L103396,67460.1" style="fill:none;stroke:rgb(255,24,0);stroke-width:120.64px;"/>
                    </g>
                </g>
                <g transform="matrix(22.2218,-1.39912e-30,-1.62995e-30,22.2218,-97638.4,24867.4)">
                    <text x="13099.4px" y="1840.22px" style="font-family:'Montserrat-Regular', 'Montserrat';font-size:52.857px;fill:white;">1</text>
                </g>
                <g transform="matrix(22.2218,-1.39912e-30,-1.62995e-30,22.2218,-109334,23871.3)">
                    <text x="13099.4px" y="1840.22px" style="font-family:'Montserrat-Regular', 'Montserrat';font-size:52.857px;fill:white;">0</text>
                </g>
                <g transform="matrix(22.2218,-1.39912e-30,-1.62995e-30,22.2218,-96540.4,18350)">
                    <text x="13028.6px" y="1840.22px" style="font-family:'Montserrat-Regular', 'Montserrat';font-size:52.857px;fill:white;">1<tspan x="13050.4px 13082.5px 13104.2px 13136.4px 13158.1px 13190.2px " y="1840.22px 1840.22px 1840.22px 1840.22px 1840.22px 1840.22px ">+1+1+1</tspan></text>
                </g>
                <g transform="matrix(22.2218,-1.39912e-30,-1.62995e-30,22.2218,-102590,18364.1)">
                    <text x="13099.4px" y="1840.22px" style="font-family:'Montserrat-Regular', 'Montserrat';font-size:52.857px;fill:white;">1<tspan x="13121.2px 13153.3px " y="1840.22px 1840.22px ">+1</tspan></text>
                </g>
                <g transform="matrix(22.2218,-1.39912e-30,-1.62995e-30,22.2218,-105856,12879.7)">
                    <text x="13099.4px" y="1840.22px" style="font-family:'Montserrat-Regular', 'Montserrat';font-size:52.857px;fill:white;">1<tspan x="13121.2px 13153.3px 13175px 13207.2px " y="1840.22px 1840.22px 1840.22px 1840.22px ">+1+1</tspan></text>
                </g>
                <g transform="matrix(20.9036,0,0,20.9036,-1.95471e+06,-229518)">
                    <circle cx="102436" cy="13938.8" r="553.055" style="fill:none;stroke:white;stroke-width:0.7px;stroke-linejoin:round;"/>
                </g>
                <g transform="matrix(8.13355,0,0,24.7552,-910393,-1.78907e+06)">
                    <path d="M134290,74727.5L134290,74564.4L135739,74564.4L135739,74727.5" style="fill:none;stroke:white;stroke-width:0.8px;stroke-linecap:square;stroke-dasharray:3.19,3.98,0,0;"/>
                </g>
                <g transform="matrix(3.91527,0,0,5.89124,-339145,-382497)">
                    <path d="M134290,74401.3L134290,74564.4" style="fill:none;stroke:white;stroke-width:2.94px;stroke-linecap:square;stroke-dasharray:11.74,14.68,0,0;"/>
                </g>
                <g transform="matrix(3.91527,0,0,3.91527,-295151,-17100.8)">
                    <text x="124583px" y="21394.6px" style="font-family:'Montserrat-Regular', 'Montserrat';font-size:125px;fill:white;">U<tspan x="124688px 124779px 124819px 124910px 124990px 125081px 125120px " y="21394.6px 21394.6px 21394.6px 21394.6px 21394.6px 21394.6px 21394.6px ">nidad /</tspan></text>
                    <text x="124356px" y="21594.6px" style="font-family:'Montserrat-Regular', 'Montserrat';font-size:125px;fill:white;">E<tspan x="124444px 124517px 124557px 124624px 124679px 124760px 124852px 124928px 124968px 125048px 125087px 125135px 125174px 125257px 125339px " y="21594.6px 21594.6px 21594.6px 21594.6px 21594.6px 21594.6px 21594.6px 21594.6px 21594.6px 21594.6px 21594.6px 21594.6px 21594.6px 21594.6px 21594.6px ">xistencia / Ser</tspan></text>
                </g>
                <g transform="matrix(-1.94613,-2.38332e-16,7.56991e-16,-6.1813,443502,523185)">
                    <path d="M134290,74401.3L134290,74564.4" style="fill:none;stroke:white;stroke-width:3.2px;stroke-linecap:square;stroke-dasharray:12.82,16.02,0,0;"/>
                </g>
                <g transform="matrix(-1.06223,-1.30086e-16,7.56991e-16,-6.1813,336365,524470)">
                    <path d="M134290,74401.3L134290,74564.4" style="fill:none;stroke:white;stroke-width:3.31px;stroke-linecap:square;stroke-dasharray:13.24,16.55,0,0;"/>
                </g>
                <g transform="matrix(-1.06223,-1.30086e-16,7.56991e-16,-6.1813,338974,521573)">
                    <path d="M134290,74401.3L134290,74564.4" style="fill:none;stroke:white;stroke-width:3.31px;stroke-linecap:square;stroke-dasharray:13.24,16.55,0,0;"/>
                </g>
                <g transform="matrix(-1.06223,-1.30086e-16,2.38283e-15,-19.4573,331938,1.51149e+06)">
                    <path d="M134290,74401.3L134290,74564.4" style="fill:none;stroke:white;stroke-width:1.07px;stroke-linecap:square;stroke-dasharray:4.26,5.33,0,0;"/>
                </g>
            </g>
        </g>
    </g>
</svg>
