<?xml version="1.0" encoding="UTF-8" standalone="no"?>
<!DOCTYPE svg PUBLIC "-//W3C//DTD SVG 1.1//EN" "http://www.w3.org/Graphics/SVG/1.1/DTD/svg11.dtd">
<svg width="100%" height="100%" viewBox="0 0 1414 170" version="1.1" xmlns="http://www.w3.org/2000/svg" xmlns:xlink="http://www.w3.org/1999/xlink" xml:space="preserve" xmlns:serif="http://www.serif.com/" style="fill-rule:evenodd;clip-rule:evenodd;stroke-linejoin:round;stroke-miterlimit:2;">
    <g transform="matrix(1,0,0,1,-0.04,-1.439)">
        <path d="M1328.17,1.439C1304.72,1.439 1283.48,10.959 1268.09,26.341C1252.71,41.724 1243.2,62.971 1243.2,86.421C1243.2,109.873 1252.71,131.119 1268.09,146.502C1283.48,161.885 1304.72,171.404 1328.17,171.404C1351.62,171.404 1372.87,161.885 1388.26,146.502C1403.64,131.119 1413.16,109.873 1413.16,86.422C1413.16,62.97 1403.64,41.724 1388.26,26.342C1372.87,10.959 1351.62,1.439 1328.17,1.439ZM1328.17,3.555C1351.04,3.555 1371.76,12.838 1386.76,27.838C1401.76,42.837 1411.04,63.553 1411.04,86.422C1411.04,109.289 1401.76,130.006 1386.76,145.006C1371.76,160.006 1351.04,169.289 1328.17,169.289C1305.3,169.289 1284.59,160.006 1269.59,145.006C1254.59,130.006 1245.31,109.289 1245.31,86.422C1245.31,63.553 1254.59,42.837 1269.59,27.838C1284.59,12.838 1305.3,3.555 1328.17,3.555Z" style="fill:white;"/>
        <g transform="matrix(0.01911,0,0,0.01911,1101.8,27.36)">
            <circle cx="15135.5" cy="3089.34" r="1097.64" style="fill:white;"/>
        </g>
        <g transform="matrix(0.01911,0,0,0.01911,1059.84,27.36)">
            <circle cx="15135.5" cy="3089.34" r="1097.64" style="fill:white;"/>
        </g>
        <g transform="matrix(0.01911,0,0,0.01911,1017.87,27.36)">
            <circle cx="15135.5" cy="3089.34" r="1097.64" style="fill:white;"/>
        </g>
        <g transform="matrix(0.01911,0,0,0.01911,975.897,27.36)">
            <circle cx="15135.5" cy="3089.34" r="1097.64" style="fill:white;"/>
        </g>
        <path d="M720.608,1.439C697.158,1.439 675.91,10.959 660.526,26.341C645.15,41.724 635.631,62.971 635.631,86.421C635.631,109.873 645.151,131.119 660.526,146.502C675.91,161.885 697.158,171.404 720.608,171.404C744.058,171.404 765.306,161.885 780.69,146.502C796.073,131.119 805.593,109.873 805.593,86.422C805.593,62.97 796.073,41.724 780.69,26.342C765.306,10.959 744.058,1.439 720.608,1.439ZM720.608,3.555C743.477,3.555 764.198,12.838 779.191,27.838C794.193,42.837 803.475,63.553 803.475,86.422C803.475,109.289 794.193,130.006 779.191,145.006C764.197,160.006 743.477,169.289 720.608,169.289C697.739,169.289 677.026,160.006 662.025,145.006C647.023,130.006 637.741,109.289 637.741,86.422C637.741,63.553 647.023,42.837 662.025,27.838C677.026,12.838 697.739,3.555 720.608,3.555ZM1026.28,1.439C1002.83,1.439 981.584,10.959 966.201,26.341C950.825,41.724 941.305,62.971 941.305,86.421C941.305,109.873 950.825,131.119 966.201,146.502C981.584,161.885 1002.83,171.404 1026.28,171.404C1049.73,171.404 1070.98,161.885 1086.36,146.502C1101.75,131.119 1111.27,109.873 1111.27,86.422C1111.27,62.97 1101.75,41.724 1086.36,26.342C1070.98,10.959 1049.73,1.439 1026.28,1.439ZM1026.28,3.555C1049.15,3.555 1069.87,12.838 1084.87,27.838C1099.87,42.837 1109.15,63.553 1109.15,86.422C1109.15,109.289 1099.87,130.006 1084.87,145.006C1069.87,160.006 1049.15,169.289 1026.28,169.289C1003.41,169.289 982.701,160.006 967.699,145.006C952.698,130.006 943.416,109.289 943.416,86.422C943.416,63.553 952.698,42.837 967.699,27.838C982.701,12.838 1003.41,3.555 1026.28,3.555Z" style="fill:white;"/>
        <g transform="matrix(0.03822,0,0,0.03822,100.18,-31.652)">
            <circle cx="15135.5" cy="3089.34" r="1097.64" style="fill:white;"/>
        </g>
        <path d="M984.308,43.41C972.441,43.41 961.69,48.228 953.905,56.013C946.12,63.797 941.301,74.55 941.301,86.418C941.301,98.286 946.121,109.038 953.905,116.824C961.69,124.608 972.441,129.426 984.308,129.426C996.178,129.426 1006.93,124.608 1014.72,116.824C1022.5,109.038 1027.32,98.286 1027.32,86.418C1027.32,74.55 1022.5,63.798 1014.72,56.013C1006.93,48.228 996.179,43.41 984.308,43.41ZM984.308,45.526C995.594,45.526 1005.82,50.106 1013.22,57.509C1020.62,64.911 1025.2,75.134 1025.2,86.419C1025.2,97.702 1020.62,107.926 1013.22,115.327C1005.82,122.729 995.594,127.31 984.308,127.31C973.026,127.31 962.803,122.729 955.4,115.327C947.997,107.926 943.418,97.702 943.418,86.418C943.418,75.134 947.997,64.911 955.4,57.508C962.803,50.107 973.026,45.526 984.308,45.526Z" style="fill:white;"/>
        <path d="M1026.28,43.41C1014.41,43.41 1003.66,48.228 995.874,56.013C988.089,63.797 983.27,74.55 983.27,86.418C983.27,98.286 988.089,109.038 995.874,116.824C1003.66,124.608 1014.41,129.426 1026.28,129.426C1038.15,129.426 1048.9,124.608 1056.68,116.824C1064.47,109.038 1069.28,98.286 1069.28,86.418C1069.28,74.55 1064.47,63.798 1056.68,56.013C1048.9,48.228 1038.15,43.41 1026.28,43.41ZM1026.28,45.526C1037.56,45.526 1047.79,50.106 1055.18,57.509C1062.59,64.911 1067.17,75.134 1067.17,86.419C1067.17,97.702 1062.59,107.926 1055.18,115.327C1047.79,122.729 1037.56,127.31 1026.28,127.31C1015,127.31 1004.77,122.729 997.368,115.327C989.966,107.926 985.387,97.702 985.387,86.418C985.387,75.134 989.966,64.911 997.368,57.508C1004.77,50.107 1015,45.526 1026.28,45.526ZM1328.17,43.41C1316.3,43.41 1305.55,48.228 1297.76,56.013C1289.98,63.797 1285.16,74.55 1285.16,86.418C1285.16,98.286 1289.98,109.038 1297.76,116.824C1305.55,124.608 1316.3,129.426 1328.17,129.426C1340.04,129.426 1350.79,124.608 1358.57,116.824C1366.36,109.038 1371.17,98.286 1371.17,86.418C1371.17,74.55 1366.36,63.798 1358.57,56.013C1350.79,48.228 1340.04,43.41 1328.17,43.41ZM1328.17,45.526C1339.45,45.526 1349.68,50.106 1357.08,57.509C1364.48,64.911 1369.06,75.134 1369.06,86.419C1369.06,97.702 1364.48,107.926 1357.08,115.327C1349.68,122.729 1339.45,127.31 1328.17,127.31C1316.88,127.31 1306.66,122.729 1299.26,115.327C1291.86,107.926 1287.28,97.702 1287.28,86.418C1287.28,75.134 1291.86,64.911 1299.26,57.508C1306.66,50.107 1316.88,45.526 1328.17,45.526Z" style="fill:white;"/>
        <g transform="matrix(0.03822,0,0,0.03822,184.117,-31.652)">
            <circle cx="15135.5" cy="3089.34" r="1097.64" style="fill:white;"/>
        </g>
        <path d="M1068.27,43.41C1056.4,43.41 1045.65,48.228 1037.87,56.013C1030.08,63.797 1025.26,74.55 1025.26,86.418C1025.26,98.286 1030.08,109.038 1037.87,116.824C1045.65,124.608 1056.4,129.426 1068.27,129.426C1080.14,129.426 1090.89,124.608 1098.68,116.824C1106.46,109.038 1111.28,98.286 1111.28,86.418C1111.28,74.55 1106.46,63.798 1098.68,56.013C1090.89,48.228 1080.14,43.41 1068.27,43.41ZM1068.27,45.526C1079.56,45.526 1089.78,50.106 1097.18,57.509C1104.58,64.911 1109.16,75.134 1109.16,86.419C1109.16,97.702 1104.58,107.926 1097.18,115.327C1089.78,122.729 1079.56,127.31 1068.27,127.31C1056.99,127.31 1046.77,122.729 1039.36,115.327C1031.96,107.926 1027.38,97.702 1027.38,86.418C1027.38,75.134 1031.96,64.911 1039.36,57.508C1046.77,50.107 1056.99,45.526 1068.27,45.526Z" style="fill:white;"/>
        <g transform="matrix(0.07646,0,0,0.07646,-767.528,-149.788)">
            <circle cx="15135.5" cy="3089.34" r="1097.64" style="fill:white;"/>
        </g>
        <path d="M84.884,2.073C61.61,2.073 40.522,11.522 25.254,26.79C9.983,42.058 0.54,63.145 0.54,86.422C0.54,109.698 9.983,130.785 25.252,146.053C40.522,161.321 61.609,170.77 84.882,170.77C108.165,170.77 129.252,161.32 144.513,146.053C159.783,130.785 169.233,109.698 169.233,86.422C169.233,63.145 159.783,42.058 144.513,26.79C129.253,11.522 108.165,2.073 84.883,2.073L84.884,2.073ZM84.884,2.92C107.929,2.92 128.802,12.274 143.918,27.389C159.034,42.503 168.385,63.379 168.385,86.422C168.385,109.464 159.035,130.34 143.918,145.455C128.802,160.569 107.928,169.923 84.884,169.923C61.847,169.923 40.966,160.569 25.849,145.455C10.741,130.34 1.382,109.465 1.382,86.422C1.382,63.378 10.742,42.503 25.849,27.389C40.966,12.274 61.847,2.919 84.884,2.919L84.884,2.92Z" style="fill:none;stroke:white;stroke-width:1px;"/>
    </g>
</svg>
