<?xml version="1.0" encoding="UTF-8" standalone="no"?>
<!DOCTYPE svg PUBLIC "-//W3C//DTD SVG 1.1//EN" "http://www.w3.org/Graphics/SVG/1.1/DTD/svg11.dtd">
<svg width="100%" height="100%" viewBox="0 0 106 92" version="1.1" xmlns="http://www.w3.org/2000/svg" xmlns:xlink="http://www.w3.org/1999/xlink" xml:space="preserve" xmlns:serif="http://www.serif.com/" style="fill-rule:evenodd;clip-rule:evenodd;stroke-linecap:round;stroke-linejoin:round;stroke-miterlimit:1.5;">
    <g transform="matrix(1,0,0,1,-690.491,-272.057)">
        <g transform="matrix(1,0,0,1,-4.45932,77.1072)">
            <g transform="matrix(0.866025,-0.5,0.5,0.866025,548.38,294.806)">
                <path d="M245.079,26.25L245.079,52.5L222.346,39.375L245.079,26.25Z" style="fill:white;stroke:black;stroke-width:0.1px;"/>
            </g>
        </g>
        <g transform="matrix(1,0,0,1,-4.45932,77.1072)">
            <g transform="matrix(0.866025,-0.5,0.5,0.866025,535.255,317.54)">
                <path d="M245.079,26.25L245.079,52.5L222.346,39.375L245.079,26.25Z" style="fill:white;stroke:black;stroke-width:0.1px;"/>
            </g>
        </g>
        <g transform="matrix(1,0,0,1,-4.45932,77.1072)">
            <g transform="matrix(0.866025,-0.5,0.5,0.866025,522.13,294.806)">
                <path d="M245.079,26.25L245.079,52.5L222.346,39.375L245.079,26.25Z" style="fill:white;stroke:black;stroke-width:0.1px;"/>
            </g>
        </g>
        <g transform="matrix(1,0,0,1,-4.45932,77.1072)">
            <g transform="matrix(0.866025,-0.5,0.5,0.866025,495.88,294.806)">
                <path d="M245.079,26.25L245.079,52.5L222.346,39.375L245.079,26.25Z" style="fill:white;stroke:black;stroke-width:0.1px;"/>
            </g>
        </g>
        <g transform="matrix(1,0,0,1,-4.45932,77.1072)">
            <g transform="matrix(0.866025,-0.5,0.5,0.866025,509.005,317.54)">
                <path d="M245.079,26.25L245.079,52.5L222.346,39.375L245.079,26.25Z" style="fill:white;stroke:black;stroke-width:0.1px;"/>
            </g>
        </g>
        <g transform="matrix(1,0,0,1,-4.45932,77.1072)">
            <g transform="matrix(0.866025,-0.5,0.5,0.866025,482.755,317.54)">
                <path d="M245.079,26.25L245.079,52.5L222.346,39.375L245.079,26.25Z" style="fill:white;stroke:black;stroke-width:0.1px;"/>
            </g>
        </g>
        <g transform="matrix(1,0,0,1,-4.45932,77.1072)">
            <g transform="matrix(0.866025,-0.5,0.5,0.866025,495.88,340.273)">
                <path d="M245.079,26.25L245.079,52.5L222.346,39.375L245.079,26.25Z" style="fill:white;stroke:black;stroke-width:0.1px;"/>
            </g>
        </g>
        <g transform="matrix(1,0,0,1,-4.45932,77.1072)">
            <g transform="matrix(0.866025,-0.5,0.5,0.866025,522.13,340.273)">
                <path d="M245.079,26.25L245.079,52.5L222.346,39.375L245.079,26.25Z" style="fill:white;stroke:black;stroke-width:0.1px;"/>
            </g>
        </g>
        <g transform="matrix(1,0,0,1,-4.45932,77.1072)">
            <g transform="matrix(0.866025,-0.5,0.5,0.866025,509.005,363.006)">
                <path d="M245.079,26.25L245.079,52.5L222.346,39.375L245.079,26.25Z" style="fill:white;stroke:black;stroke-width:0.1px;"/>
            </g>
        </g>
        <g transform="matrix(1,0,0,1,-4.45932,77.1072)">
            <g transform="matrix(0.866025,-0.5,0.5,0.866025,535.255,363.006)">
                <path d="M245.079,26.25L245.079,52.5L222.346,39.375L245.079,26.25Z" style="fill:white;stroke:black;stroke-width:0.1px;"/>
            </g>
        </g>
        <g transform="matrix(1,0,0,1,-4.45932,77.1072)">
            <g transform="matrix(0.866025,-0.5,0.5,0.866025,548.38,340.273)">
                <path d="M245.079,26.25L245.079,52.5L222.346,39.375L245.079,26.25Z" style="fill:white;stroke:black;stroke-width:0.1px;"/>
            </g>
        </g>
        <g transform="matrix(1,0,0,1,-4.45932,77.1072)">
            <g transform="matrix(0.866025,-0.5,0.5,0.866025,533.967,332.855)">
                <path d="M253.852,39.881L231.119,53.006L231.119,26.756L253.852,39.881Z" style="fill:white;stroke:black;stroke-width:0.1px;"/>
            </g>
        </g>
        <g transform="matrix(1,0,0,1,-4.45932,77.1072)">
            <g transform="matrix(0.866025,-0.5,0.5,0.866025,547.092,310.122)">
                <path d="M253.852,39.881L231.119,53.006L231.119,26.756L253.852,39.881Z" style="fill:white;stroke:black;stroke-width:0.1px;"/>
            </g>
        </g>
        <g transform="matrix(1,0,0,1,-4.45932,77.1072)">
            <g transform="matrix(0.866025,-0.5,0.5,0.866025,520.842,310.122)">
                <path d="M253.852,39.881L231.119,53.006L231.119,26.756L253.852,39.881Z" style="fill:white;stroke:black;stroke-width:0.1px;"/>
            </g>
        </g>
        <g transform="matrix(1,0,0,1,-4.45932,77.1072)">
            <g transform="matrix(0.866025,-0.5,0.5,0.866025,494.592,310.122)">
                <path d="M253.852,39.881L231.119,53.006L231.119,26.756L253.852,39.881Z" style="fill:white;stroke:black;stroke-width:0.1px;"/>
            </g>
        </g>
        <g transform="matrix(1,0,0,1,-4.45932,77.1072)">
            <g transform="matrix(0.866025,-0.5,0.5,0.866025,507.717,287.388)">
                <path d="M253.852,39.881L231.119,53.006L231.119,26.756L253.852,39.881Z" style="fill:white;stroke:black;stroke-width:0.1px;"/>
            </g>
        </g>
        <g transform="matrix(1,0,0,1,-4.45932,77.1072)">
            <g transform="matrix(0.866025,-0.5,0.5,0.866025,533.967,287.388)">
                <path d="M253.852,39.881L231.119,53.006L231.119,26.756L253.852,39.881Z" style="fill:white;stroke:black;stroke-width:0.1px;"/>
            </g>
        </g>
        <g transform="matrix(1,0,0,1,-4.45932,77.1072)">
            <g transform="matrix(0.866025,-0.5,0.5,0.866025,560.217,332.855)">
                <path d="M253.852,39.881L231.119,53.006L231.119,26.756L253.852,39.881Z" style="fill:white;stroke:black;stroke-width:0.1px;"/>
            </g>
        </g>
        <g transform="matrix(1,0,0,1,-4.45932,77.1072)">
            <g transform="matrix(0.866025,-0.5,0.5,0.866025,547.092,355.588)">
                <path d="M253.852,39.881L231.119,53.006L231.119,26.756L253.852,39.881Z" style="fill:white;stroke:black;stroke-width:0.1px;"/>
            </g>
        </g>
        <g transform="matrix(1,0,0,1,-4.45932,77.1072)">
            <g transform="matrix(0.866025,-0.5,0.5,0.866025,520.842,355.588)">
                <path d="M253.852,39.881L231.119,53.006L231.119,26.756L253.852,39.881Z" style="fill:white;stroke:black;stroke-width:0.1px;"/>
            </g>
        </g>
        <g transform="matrix(1,0,0,1,-4.45932,77.1072)">
            <g transform="matrix(0.866025,-0.5,0.5,0.866025,507.717,332.855)">
                <path d="M253.852,39.881L231.119,53.006L231.119,26.756L253.852,39.881Z" style="fill:white;stroke:black;stroke-width:0.1px;"/>
            </g>
        </g>
        <g transform="matrix(1,0,0,1,-4.45932,77.1072)">
            <g transform="matrix(0.866025,-0.5,0.5,0.866025,494.592,355.588)">
                <path d="M253.852,39.881L231.119,53.006L231.119,26.756L253.852,39.881Z" style="fill:white;stroke:black;stroke-width:0.1px;"/>
            </g>
        </g>
        <g transform="matrix(1,0,0,1,-4.45932,77.1072)">
            <g transform="matrix(0.866025,-0.5,0.5,0.866025,481.467,332.855)">
                <path d="M253.852,39.881L231.119,53.006L231.119,26.756L253.852,39.881Z" style="fill:white;stroke:black;stroke-width:0.1px;"/>
            </g>
        </g>
        <g transform="matrix(1,0,0,1,-4.45932,77.1072)">
            <g transform="matrix(0.866025,-0.5,0.5,0.866025,561.505,317.54)">
                <path d="M245.079,26.25L245.079,52.5L222.346,39.375L245.079,26.25Z" style="fill:white;stroke:black;stroke-width:0.1px;"/>
            </g>
        </g>
    </g>
</svg>
