<?xml version="1.0" encoding="UTF-8" standalone="no"?>
<!DOCTYPE svg PUBLIC "-//W3C//DTD SVG 1.1//EN" "http://www.w3.org/Graphics/SVG/1.1/DTD/svg11.dtd">
<svg width="100%" height="100%" viewBox="0 0 169 85" version="1.1" xmlns="http://www.w3.org/2000/svg" xmlns:xlink="http://www.w3.org/1999/xlink" xml:space="preserve" xmlns:serif="http://www.serif.com/" style="fill-rule:evenodd;clip-rule:evenodd;stroke-linejoin:bevel;stroke-miterlimit:2;">
    <g transform="matrix(1,0,0,1,-863.316,-996.651)">
        <g transform="matrix(1,0,0,1,-7151.23,-3632.81)">
            <g transform="matrix(0.0191089,0,0,0.0191089,7788.47,4612.61)">
                <circle cx="15135.5" cy="3089.34" r="1097.64" style="fill:none;stroke:black;stroke-width:23.55px;"/>
            </g>
            <g transform="matrix(0.0191089,0,0,0.0191089,7872.4,4612.61)">
                <circle cx="15135.5" cy="3089.34" r="1097.64" style="fill:none;stroke:black;stroke-width:23.55px;"/>
            </g>
            <g transform="matrix(0.0191089,0,0,0.0191089,7746.52,4612.61)">
                <circle cx="15135.5" cy="3089.34" r="1097.64" style="fill:none;stroke:black;stroke-width:23.55px;"/>
            </g>
            <g transform="matrix(0.0191089,0,0,0.0191089,7830.51,4612.61)">
                <circle cx="15135.5" cy="3089.34" r="1097.64" style="fill:none;stroke:black;stroke-width:23.55px;"/>
            </g>
            <g transform="matrix(0.00955317,0,0,0.00955318,7901.64,4642.13)">
                <circle cx="15135.5" cy="3089.34" r="1097.64" style="fill:none;stroke:black;stroke-width:47.1px;"/>
            </g>
            <g transform="matrix(0.00955317,0,0,0.00955318,7943.59,4642.13)">
                <circle cx="15135.5" cy="3089.34" r="1097.64" style="fill:none;stroke:black;stroke-width:47.1px;"/>
            </g>
            <g transform="matrix(0.00955317,0,0,0.00955318,7880.66,4642.13)">
                <circle cx="15135.5" cy="3089.34" r="1097.64" style="fill:none;stroke:black;stroke-width:47.1px;"/>
            </g>
            <g transform="matrix(0.00955317,0,0,0.00955318,7922.65,4642.13)">
                <circle cx="15135.5" cy="3089.34" r="1097.64" style="fill:none;stroke:black;stroke-width:47.1px;"/>
            </g>
            <g transform="matrix(0.00955317,0,0,0.00955318,7985.63,4642.13)">
                <circle cx="15135.5" cy="3089.34" r="1097.64" style="fill:none;stroke:black;stroke-width:47.1px;"/>
            </g>
            <g transform="matrix(0.00955317,0,0,0.00955318,8027.49,4642.13)">
                <circle cx="15135.5" cy="3089.34" r="1097.64" style="fill:none;stroke:black;stroke-width:47.1px;"/>
            </g>
            <g transform="matrix(0.00955317,0,0,0.00955318,7964.56,4642.13)">
                <circle cx="15135.5" cy="3089.34" r="1097.64" style="fill:none;stroke:black;stroke-width:47.1px;"/>
            </g>
            <g transform="matrix(0.00955317,0,0,0.00955318,8006.54,4642.13)">
                <circle cx="15135.5" cy="3089.34" r="1097.64" style="fill:none;stroke:black;stroke-width:47.1px;"/>
            </g>
            <g transform="matrix(0.0382184,0,0,0.0382184,7562.17,4553.57)">
                <circle cx="15135.5" cy="3089.34" r="1097.64" style="fill:none;stroke:black;stroke-width:11.77px;"/>
            </g>
            <g transform="matrix(0.0382184,0,0,0.0382184,7478.27,4553.57)">
                <circle cx="15135.5" cy="3089.34" r="1097.64" style="fill:none;stroke:black;stroke-width:11.77px;"/>
            </g>
        </g>
    </g>
</svg>
