<?xml version="1.0" encoding="UTF-8" standalone="no"?>
<!DOCTYPE svg PUBLIC "-//W3C//DTD SVG 1.1//EN" "http://www.w3.org/Graphics/SVG/1.1/DTD/svg11.dtd">
<svg width="100%" height="100%" viewBox="0 0 150 150" version="1.1" xmlns="http://www.w3.org/2000/svg" xmlns:xlink="http://www.w3.org/1999/xlink" xml:space="preserve" xmlns:serif="http://www.serif.com/" style="fill-rule:evenodd;clip-rule:evenodd;">
    <g id="Mesa-de-trabajo1" serif:id="Mesa de trabajo1" transform="matrix(0.574412,0,0,0.666889,-399.564,-130.632)">
        <rect x="695.605" y="195.883" width="261.137" height="224.925" style="fill:none;"/>
        <g transform="matrix(1.74091,0,0,1.4995,-510.012,-78.9652)">
            <g>
                <g transform="matrix(0.0951846,0,0,0.0951846,691.373,182.146)">
                    <path d="M800,800L438.201,800M800,800L619.1,486.673M800,800L980.9,486.673M800,800L1161.8,800M800,800L980.9,1113.33M800,800L619.1,1113.33M438.201,800L257.301,486.673M438.201,800L619.1,486.673M438.201,800L619.1,1113.33M438.201,800L257.302,1113.33M619.1,486.673L257.301,486.673M619.1,486.673L800,173.346M619.1,486.673L980.9,486.673M257.301,486.673L438.201,173.346M257.301,486.673L76.402,800M980.9,486.673L800,173.346M980.9,486.673L1342.7,486.673M980.9,486.673L1161.8,800M619.1,486.673L438.201,173.346M800,173.346L438.201,173.346M800,173.346L1161.8,173.346M1161.8,800L1342.7,486.673M1161.8,800L1342.7,1113.33M1161.8,800L980.9,1113.33M980.9,486.673L1161.8,173.346M1342.7,486.673L1161.8,173.346M1342.7,486.673L1523.6,800M980.9,1113.33L619.1,1113.33M980.9,1113.33L1342.7,1113.33M980.9,1113.33L800,1426.65M619.1,1113.33L438.201,1426.65M1161.8,800L1523.6,800M1342.7,1113.33L1523.6,800M1342.7,1113.33L1161.8,1426.65M619.1,1113.33L257.302,1113.33M619.1,1113.33L800,1426.65M257.302,1113.33L76.402,800M257.302,1113.33L438.201,1426.65M438.201,800L76.402,800M980.9,1113.33L1161.8,1426.65M800,1426.65L438.201,1426.65M800,1426.65L1161.8,1426.65" style="fill:none;fill-rule:nonzero;stroke:white;stroke-opacity:0.5;stroke-width:10.51px;"/>
                </g>
                <g transform="matrix(0.0951846,0,0,0.0951846,691.373,182.146)">
                    <circle cx="438.201" cy="173.346" r="38.3" style="fill:white;"/>
                </g>
                <g transform="matrix(0.0951846,0,0,0.0951846,691.373,182.146)">
                    <circle cx="1161.8" cy="173.346" r="38.3" style="fill:white;"/>
                </g>
                <g transform="matrix(0.0951846,0,0,0.0951846,691.373,182.146)">
                    <circle cx="1523.6" cy="800" r="38.3" style="fill:white;"/>
                </g>
                <g transform="matrix(0.0951846,0,0,0.0951846,691.373,182.146)">
                    <circle cx="76.402" cy="800" r="38.3" style="fill:white;"/>
                </g>
                <g transform="matrix(0.0951846,0,0,0.0951846,691.373,182.146)">
                    <circle cx="438.201" cy="1426.65" r="38.3" style="fill:white;"/>
                </g>
                <g transform="matrix(0.0951846,0,0,0.0951846,691.373,182.146)">
                    <circle cx="1161.8" cy="1426.65" r="38.3" style="fill:white;"/>
                </g>
                <g transform="matrix(0.0951846,0,0,0.0951846,691.373,182.146)">
                    <circle cx="257.301" cy="486.673" r="38.3" style="fill:white;"/>
                </g>
                <g transform="matrix(0.0951846,0,0,0.0951846,691.373,182.146)">
                    <circle cx="800" cy="173.346" r="38.3" style="fill:rgb(255,242,0);"/>
                </g>
                <g transform="matrix(0.0951846,0,0,0.0951846,691.373,182.146)">
                    <circle cx="1342.7" cy="486.673" r="38.3" style="fill:white;"/>
                </g>
                <g transform="matrix(0.0951846,0,0,0.0951846,691.373,182.146)">
                    <circle cx="1342.7" cy="1113.33" r="38.3" style="fill:rgb(98,165,38);"/>
                </g>
                <g transform="matrix(0.0951846,0,0,0.0951846,691.373,182.146)">
                    <circle cx="257.302" cy="1113.33" r="38.3" style="fill:rgb(98,165,38);"/>
                </g>
                <g transform="matrix(0.0951846,0,0,0.0951846,691.373,182.146)">
                    <circle cx="800" cy="1426.65" r="38.3" style="fill:white;"/>
                </g>
                <g transform="matrix(0.0951846,0,0,0.0951846,691.373,182.146)">
                    <circle cx="438.201" cy="800" r="38.3" style="fill:rgb(171,99,251);"/>
                </g>
                <g transform="matrix(0.0951846,0,0,0.0951846,691.373,182.146)">
                    <circle cx="619.1" cy="486.673" r="38.3" style="fill:rgb(45,45,247);"/>
                </g>
                <g transform="matrix(0.0951846,0,0,0.0951846,691.373,182.146)">
                    <circle cx="980.9" cy="486.673" r="38.3" style="fill:rgb(45,45,247);"/>
                </g>
                <g transform="matrix(0.0951846,0,0,0.0951846,691.373,182.146)">
                    <circle cx="1161.8" cy="800" r="38.3" style="fill:rgb(171,99,251);"/>
                </g>
                <g transform="matrix(0.0951846,0,0,0.0951846,691.373,182.146)">
                    <circle cx="980.9" cy="1113.33" r="38.3" style="fill:rgb(98,165,38);"/>
                </g>
                <g transform="matrix(0.0951846,0,0,0.0951846,691.373,182.146)">
                    <circle cx="619.1" cy="1113.33" r="38.3" style="fill:rgb(98,165,38);"/>
                </g>
                <g transform="matrix(0.0951846,0,0,0.0951846,691.798,182.286)">
                    <circle cx="800" cy="800" r="38.3" style="fill:rgb(171,99,251);"/>
                </g>
            </g>
        </g>
    </g>
</svg>
