<?xml version="1.0" encoding="UTF-8" standalone="no"?>
<!DOCTYPE svg PUBLIC "-//W3C//DTD SVG 1.1//EN" "http://www.w3.org/Graphics/SVG/1.1/DTD/svg11.dtd">
<svg width="100%" height="100%" viewBox="0 0 107 95" version="1.1" xmlns="http://www.w3.org/2000/svg" xmlns:xlink="http://www.w3.org/1999/xlink" xml:space="preserve" xmlns:serif="http://www.serif.com/" style="fill-rule:evenodd;clip-rule:evenodd;stroke-linejoin:round;stroke-miterlimit:2;">
    <g transform="matrix(1,0,0,1,-189.82,-206.015)">
        <g id="Mesa-de-trabajo1" serif:id="Mesa de trabajo1" transform="matrix(0.408984,0,0,0.418522,-94.6716,124.033)">
            <rect x="695.605" y="195.883" width="261.137" height="224.925" style="fill:none;"/>
            <g transform="matrix(2.44508,0,0,2.38936,-1033.23,-321.934)">
                <g transform="matrix(0.866025,0.5,-0.5,0.866025,614.005,117.927)">
                    <path d="M245.079,26.25L245.079,78.75L199.613,105L199.613,52.5L245.079,26.25Z" style="fill:white;"/>
                </g>
                <g transform="matrix(0.866025,0.5,-0.5,0.866025,587.755,72.4605)">
                    <path d="M245.079,26.25L245.079,78.75L199.613,105L199.613,52.5L245.079,26.25Z" style="fill:white;"/>
                </g>
                <g transform="matrix(0.866025,-0.5,0.5,0.866025,561.505,317.54)">
                    <path d="M245.079,26.25L245.079,78.75L199.613,105L199.613,52.5L245.079,26.25Z"/>
                </g>
                <g transform="matrix(0.866025,-0.5,0.5,0.866025,509.005,317.54)">
                    <path d="M245.079,26.25L245.079,78.75L199.613,105L199.613,52.5L245.079,26.25Z"/>
                </g>
            </g>
        </g>
    </g>
</svg>
