<?xml version="1.0" encoding="UTF-8" standalone="no"?>
<!DOCTYPE svg PUBLIC "-//W3C//DTD SVG 1.1//EN" "http://www.w3.org/Graphics/SVG/1.1/DTD/svg11.dtd">
<svg width="100%" height="100%" viewBox="0 0 252 169" version="1.1" xmlns="http://www.w3.org/2000/svg" xmlns:xlink="http://www.w3.org/1999/xlink" xml:space="preserve" xmlns:serif="http://www.serif.com/" style="fill-rule:evenodd;clip-rule:evenodd;stroke-linejoin:round;stroke-miterlimit:2;">
    <g>
        <g transform="matrix(0.02438,0,0,0.02438,-1576.98,-247.979)">
            <path d="M69823.8,10668.7C70324.9,10376.7 70907,10208.8 71528.2,10207.1C73411,10201.9 74943.7,11726.3 74948.8,13609.1C74953.9,15491.8 73429.5,17024.6 71546.8,17029.7C70925.6,17031.4 70342.5,16866.6 69839.9,16577.4C69338.8,16869.3 68756.6,17037.3 68135.5,17039C66252.7,17044.1 64720,15519.7 64714.9,13636.9C64709.7,11754.2 66234.1,10221.5 68116.9,10216.4C68738.1,10214.7 69321.1,10379.5 69823.8,10668.7Z" style="fill:none;stroke:white;stroke-width:41.01px;"/>
        </g>
        <g transform="matrix(0.02438,0,0,0.02438,-1576.98,-247.979)">
            <path d="M69823.7,10650.4C70077.5,10503.5 70351.8,10388.1 70641.3,10309.8C70924.1,10233.3 71221.4,10192.1 71528.2,10191.2C72473.9,10188.7 73331.7,10570.3 73953.8,11188.9C74575.8,11807.6 74962,12663.3 74964.6,13609.1C74967.2,14554.8 74585.6,15412.6 73966.9,16034.7C73348.3,16656.7 72492.6,17042.9 71546.8,17045.5C71240,17046.3 70942.5,17006.8 70659.3,16931.8C70369.4,16855 70094.5,16741.2 69839.9,16595.6C69586.2,16742.6 69311.9,16857.9 69022.4,16936.2C68739.6,17012.8 68442.3,17054 68135.5,17054.8C67189.8,17057.4 66331.9,16675.8 65709.9,16057.1C65087.9,15438.5 64701.6,14582.7 64699,13637C64696.5,12691.2 65078.1,11833.4 65696.7,11211.4C66315.4,10589.3 67171.1,10203.1 68116.9,10200.5C68423.6,10199.7 68721.1,10239.3 69004.3,10314.3C69294.3,10391 69569.2,10504.9 69823.7,10650.4ZM69831.8,10682.4C70085.3,10534.6 70359.8,10418.8 70649.6,10340.4C70929.8,10264.5 71224.3,10223.7 71528.2,10222.9C72465.3,10220.3 73315.2,10598.4 73931.5,11211.3C74547.7,11824.3 74930.4,12672.1 74933,13609.1C74935.5,14546.1 74557.5,15396.1 73944.5,16012.3C73331.6,16628.6 72483.7,17011.3 71546.7,17013.9C71242.8,17014.7 70948,16975.5 70667.4,16901.2C70377.2,16824.4 70102.1,16710 69847.8,16563.6L69831.9,16563.7C69578.3,16711.4 69303.9,16827.3 69014.1,16905.7C68733.9,16981.5 68439.4,17022.3 68135.4,17023.1C67198.4,17025.7 66348.5,16647.6 65732.2,16034.7C65115.9,15421.7 64733.2,14573.9 64730.7,13636.9C64728.1,12699.9 65106.2,11850 65719.1,11233.7C66332.1,10617.4 67179.9,10234.7 68116.9,10232.2C68420.9,10231.3 68715.6,10270.6 68996.2,10344.8C69286.5,10421.7 69561.5,10536 69815.9,10682.4L69831.8,10682.4Z" style="fill:none;stroke:white;stroke-width:41.01px;"/>
        </g>
    </g>
    <g transform="matrix(0.07578,-0.0002,0.0002,0.07578,-1063.47,-146.687)">
        <path d="M15135.5,1986.61C14831.2,1986.61 14555.5,2110.14 14355.9,2309.74C14156.3,2509.35 14032.8,2785.03 14032.8,3089.34C14032.8,3393.64 14156.3,3669.33 14355.9,3868.93C14555.5,4068.54 14831.2,4192.07 15135.5,4192.07C15439.8,4192.07 15715.5,4068.54 15915.1,3868.93C16114.7,3669.33 16238.3,3393.64 16238.3,3089.34C16238.3,2785.03 16114.7,2509.35 15915.1,2309.74C15715.5,2110.14 15439.8,1986.61 15135.5,1986.61ZM15135.5,1996.79C15437,1996.79 15710.2,2119.18 15907.9,2316.94C16105.7,2514.7 16228.1,2787.84 16228.1,3089.34C16228.1,3390.83 16105.7,3663.97 15907.9,3861.73C15710.2,4059.5 15437,4181.89 15135.5,4181.89C14834,4181.89 14560.9,4059.5 14363.1,3861.73C14165.4,3663.97 14043,3390.83 14043,3089.34C14043,2787.84 14165.4,2514.7 14363.1,2316.94C14560.9,2119.18 14834,1996.79 15135.5,1996.79Z" style="fill:none;stroke:white;stroke-width:3.96px;"/>
    </g>
    <g transform="matrix(0.06995,-0.00019,0.00019,0.06995,-975.256,-128.93)">
        <path d="M15135.5,1986.18C14831.1,1986.18 14555.3,2109.76 14355.6,2309.44C14156,2509.12 14032.4,2784.91 14032.4,3089.34C14032.4,3393.76 14156,3669.55 14355.6,3869.23C14555.3,4068.91 14831.1,4192.49 15135.5,4192.49C15440,4192.49 15715.7,4068.91 15915.4,3869.23C16115.1,3669.55 16238.7,3393.76 16238.7,3089.34C16238.7,2784.91 16115.1,2509.12 15915.4,2309.44C15715.7,2109.76 15440,1986.18 15135.5,1986.18ZM15135.5,1997.21C15436.9,1997.21 15709.9,2119.55 15907.6,2317.24C16105.3,2514.93 16227.7,2787.96 16227.7,3089.34C16227.7,3390.72 16105.3,3663.75 15907.6,3861.43C15709.9,4059.12 15436.9,4181.46 15135.5,4181.46C14834.1,4181.46 14561.1,4059.12 14363.4,3861.43C14165.7,3663.75 14043.4,3390.72 14043.4,3089.34C14043.4,2787.96 14165.7,2514.93 14363.4,2317.24C14561.1,2119.55 14834.1,1997.21 15135.5,1997.21Z" style="fill:none;stroke:white;stroke-width:4.29px;"/>
    </g>
    <g transform="matrix(0.07578,-0.0002,0.0002,0.07578,-980.296,-146.913)">
        <path d="M15135.5,1986.61C14831.2,1986.61 14555.5,2110.14 14355.9,2309.74C14156.3,2509.35 14032.8,2785.03 14032.8,3089.34C14032.8,3393.64 14156.3,3669.33 14355.9,3868.93C14555.5,4068.54 14831.2,4192.07 15135.5,4192.07C15439.8,4192.07 15715.5,4068.54 15915.1,3868.93C16114.7,3669.33 16238.3,3393.64 16238.3,3089.34C16238.3,2785.03 16114.7,2509.35 15915.1,2309.74C15715.5,2110.14 15439.8,1986.61 15135.5,1986.61ZM15135.5,1996.79C15437,1996.79 15710.2,2119.18 15907.9,2316.94C16105.7,2514.7 16228.1,2787.84 16228.1,3089.34C16228.1,3390.83 16105.7,3663.97 15907.9,3861.73C15710.2,4059.5 15437,4181.89 15135.5,4181.89C14834,4181.89 14560.9,4059.5 14363.1,3861.73C14165.4,3663.97 14043,3390.83 14043,3089.34C14043,2787.84 14165.4,2514.7 14363.1,2316.94C14560.9,2119.18 14834,1996.79 15135.5,1996.79Z" style="fill:none;stroke:white;stroke-width:3.96px;"/>
    </g>
    <g transform="matrix(0.06995,-0.00019,0.00019,0.06995,-892.077,-129.158)">
        <path d="M15135.5,1986.18C14831.1,1986.18 14555.3,2109.76 14355.6,2309.44C14156,2509.12 14032.4,2784.91 14032.4,3089.34C14032.4,3393.76 14156,3669.55 14355.6,3869.23C14555.3,4068.91 14831.1,4192.49 15135.5,4192.49C15440,4192.49 15715.7,4068.91 15915.4,3869.23C16115.1,3669.55 16238.7,3393.76 16238.7,3089.34C16238.7,2784.91 16115.1,2509.12 15915.4,2309.44C15715.7,2109.76 15440,1986.18 15135.5,1986.18ZM15135.5,1997.21C15436.9,1997.21 15709.9,2119.55 15907.6,2317.24C16105.3,2514.93 16227.7,2787.96 16227.7,3089.34C16227.7,3390.72 16105.3,3663.75 15907.6,3861.43C15709.9,4059.12 15436.9,4181.46 15135.5,4181.46C14834.1,4181.46 14561.1,4059.12 14363.4,3861.43C14165.7,3663.75 14043.4,3390.72 14043.4,3089.34C14043.4,2787.96 14165.7,2514.93 14363.4,2317.24C14561.1,2119.55 14834.1,1997.21 15135.5,1997.21Z" style="fill:none;stroke:white;stroke-width:4.29px;"/>
    </g>
    <g transform="matrix(0.06412,-0.00017,0.00017,0.06412,-886.993,-111.166)">
        <path d="M15135.5,1985.68C14831,1985.68 14555.1,2109.32 14355.3,2309.09C14155.5,2508.86 14031.9,2784.78 14031.9,3089.34C14031.9,3393.9 14155.5,3669.81 14355.3,3869.59C14555.1,4069.36 14831,4192.99 15135.5,4192.99C15440.1,4192.99 15716,4069.36 15915.8,3869.59C16115.6,3669.81 16239.2,3393.9 16239.2,3089.34C16239.2,2784.78 16115.6,2508.86 15915.8,2309.09C15716,2109.32 15440.1,1985.68 15135.5,1985.68ZM15135.5,1997.71C15436.8,1997.71 15709.7,2120 15907.3,2317.6C16104.9,2515.19 16227.1,2788.1 16227.1,3089.34C16227.1,3390.58 16104.9,3663.48 15907.3,3861.08C15709.7,4058.67 15436.8,4180.96 15135.5,4180.96C14834.3,4180.96 14561.4,4058.67 14363.8,3861.08C14166.2,3663.48 14043.9,3390.58 14043.9,3089.34C14043.9,2788.1 14166.2,2515.19 14363.8,2317.6C14561.4,2120 14834.3,1997.71 15135.5,1997.71Z" style="fill:none;stroke:white;stroke-width:4.68px;"/>
    </g>
    <g transform="matrix(0.06412,-0.00017,0.00017,0.06412,-803.817,-111.392)">
        <path d="M15135.5,1985.68C14831,1985.68 14555.1,2109.32 14355.3,2309.09C14155.5,2508.86 14031.9,2784.78 14031.9,3089.34C14031.9,3393.9 14155.5,3669.81 14355.3,3869.59C14555.1,4069.36 14831,4192.99 15135.5,4192.99C15440.1,4192.99 15716,4069.36 15915.8,3869.59C16115.6,3669.81 16239.2,3393.9 16239.2,3089.34C16239.2,2784.78 16115.6,2508.86 15915.8,2309.09C15716,2109.32 15440.1,1985.68 15135.5,1985.68ZM15135.5,1997.71C15436.8,1997.71 15709.7,2120 15907.3,2317.6C16104.9,2515.19 16227.1,2788.1 16227.1,3089.34C16227.1,3390.58 16104.9,3663.48 15907.3,3861.08C15709.7,4058.67 15436.8,4180.96 15135.5,4180.96C14834.3,4180.96 14561.4,4058.67 14363.8,3861.08C14166.2,3663.48 14043.9,3390.58 14043.9,3089.34C14043.9,2788.1 14166.2,2515.19 14363.8,2317.6C14561.4,2120 14834.3,1997.71 15135.5,1997.71Z" style="fill:none;stroke:white;stroke-width:4.68px;"/>
    </g>
    <g transform="matrix(0.0583,-0.00016,0.00016,0.0583,-798.506,-93.19)">
        <path d="M15135.5,1985.08C14830.8,1985.08 14554.7,2108.78 14354.9,2308.66C14155,2508.55 14031.3,2784.61 14031.3,3089.34C14031.3,3394.07 14155,3670.13 14354.9,3870.01C14554.7,4069.89 14830.8,4193.59 15135.5,4193.59C15440.3,4193.59 15716.3,4069.89 15916.2,3870.01C16116.1,3670.13 16239.8,3394.07 16239.8,3089.34C16239.8,2784.61 16116.1,2508.55 15916.2,2308.66C15716.3,2108.78 15440.3,1985.08 15135.5,1985.08ZM15135.5,1998.32C15436.6,1998.32 15709.4,2120.53 15906.8,2318.02C16104.3,2515.51 16226.5,2788.26 16226.5,3089.34C16226.5,3390.41 16104.3,3663.17 15906.8,3860.65C15709.4,4058.14 15436.6,4180.36 15135.5,4180.36C14834.5,4180.36 14561.7,4058.14 14364.2,3860.65C14166.7,3663.17 14044.5,3390.41 14044.5,3089.34C14044.5,2788.26 14166.7,2515.51 14364.2,2318.02C14561.7,2120.53 14834.5,1998.32 15135.5,1998.32Z" style="fill:none;stroke:white;stroke-width:5.15px;"/>
    </g>
    <g transform="matrix(0.0583,-0.00016,0.00016,0.0583,-715.33,-93.418)">
        <path d="M15135.5,1985.08C14830.8,1985.08 14554.7,2108.78 14354.9,2308.66C14155,2508.55 14031.3,2784.61 14031.3,3089.34C14031.3,3394.07 14155,3670.13 14354.9,3870.01C14554.7,4069.89 14830.8,4193.59 15135.5,4193.59C15440.3,4193.59 15716.3,4069.89 15916.2,3870.01C16116.1,3670.13 16239.8,3394.07 16239.8,3089.34C16239.8,2784.61 16116.1,2508.55 15916.2,2308.66C15716.3,2108.78 15440.3,1985.08 15135.5,1985.08ZM15135.5,1998.32C15436.6,1998.32 15709.4,2120.53 15906.8,2318.02C16104.3,2515.51 16226.5,2788.26 16226.5,3089.34C16226.5,3390.41 16104.3,3663.17 15906.8,3860.65C15709.4,4058.14 15436.6,4180.36 15135.5,4180.36C14834.5,4180.36 14561.7,4058.14 14364.2,3860.65C14166.7,3663.17 14044.5,3390.41 14044.5,3089.34C14044.5,2788.26 14166.7,2515.51 14364.2,2318.02C14561.7,2120.53 14834.5,1998.32 15135.5,1998.32Z" style="fill:none;stroke:white;stroke-width:5.15px;"/>
    </g>
    <path d="M84.117,26.553C68.129,26.597 53.659,33.127 43.201,43.643C32.743,54.16 26.291,68.663 26.334,84.651C26.378,100.64 32.909,115.107 43.424,125.566C53.939,136.026 68.444,142.476 84.432,142.433C100.425,142.39 114.889,135.86 125.348,125.343C135.806,114.827 142.258,100.325 142.215,84.336C142.171,68.347 135.64,53.88 125.125,43.42C114.609,32.96 100.109,26.51 84.117,26.553ZM84.119,27.325C99.896,27.282 114.207,33.647 124.581,43.967C134.96,54.287 141.401,68.562 141.444,84.337C141.487,100.114 135.124,114.423 124.801,124.799C114.484,135.176 100.208,141.619 84.43,141.662C68.658,141.705 54.347,135.339 43.968,125.019C33.594,114.699 27.148,100.425 27.105,84.649C27.062,68.873 33.431,54.564 43.748,44.187C54.07,33.81 68.347,27.368 84.118,27.325L84.119,27.325Z" style="fill:none;stroke:white;stroke-width:0.3px;"/>
    <path d="M167.293,26.326C151.305,26.37 136.835,32.9 126.377,43.416C115.919,53.933 109.467,68.436 109.51,84.424C109.554,100.413 116.085,114.88 126.6,125.339C137.115,135.799 151.62,142.249 167.608,142.206C183.601,142.163 198.065,135.633 208.524,125.116C218.982,114.6 225.434,100.098 225.391,84.109C225.347,68.12 218.816,53.653 208.301,43.193C197.785,32.733 183.285,26.283 167.293,26.326ZM167.295,27.098C183.072,27.055 197.383,33.42 207.757,43.74C218.136,54.06 224.577,68.335 224.62,84.11C224.663,99.887 218.3,114.196 207.977,124.572C197.66,134.949 183.384,141.392 167.606,141.435C151.834,141.478 137.523,135.112 127.144,124.792C116.77,114.472 110.324,100.198 110.281,84.422C110.238,68.646 116.607,54.337 126.924,43.96C137.246,33.584 151.523,27.141 167.294,27.098L167.295,27.098Z" style="fill:none;stroke:white;stroke-width:0.3px;"/>
    <path d="M84.137,32.894C69.897,32.934 57.017,38.749 47.701,48.114C38.386,57.479 32.641,70.394 32.679,84.634C32.718,98.873 38.534,111.757 47.899,121.072C57.266,130.386 70.179,136.131 84.418,136.092C98.658,136.053 111.543,130.238 120.858,120.873C130.169,111.508 135.915,98.593 135.876,84.353C135.837,70.113 130.021,57.23 120.66,47.916C111.294,38.601 98.377,32.856 84.137,32.894ZM84.139,33.666C98.165,33.628 110.889,39.287 120.115,48.462C129.341,57.638 135.068,70.329 135.106,84.355C135.145,98.381 129.486,111.104 120.311,120.329C111.135,129.554 98.441,135.283 84.416,135.321C70.391,135.359 57.67,129.7 48.444,120.525C39.218,111.349 33.492,98.658 33.454,84.632C33.415,70.606 39.073,57.883 48.249,48.658C57.425,39.433 70.114,33.704 84.139,33.666Z" style="fill:none;stroke:white;stroke-width:0.3px;"/>
    <path d="M167.3,32.667C153.06,32.707 140.179,38.522 130.863,47.887C121.548,57.252 115.803,70.167 115.841,84.407C115.88,98.646 121.696,111.53 131.061,120.845C140.428,130.159 153.341,135.904 167.58,135.865C181.82,135.826 194.705,130.011 204.02,120.646C213.331,111.281 219.077,98.366 219.038,84.126C218.999,69.886 213.183,57.003 203.822,47.689C194.456,38.374 181.539,32.629 167.299,32.667L167.3,32.667ZM167.301,33.439C181.327,33.401 194.051,39.06 203.277,48.235C212.503,57.411 218.23,70.102 218.268,84.128C218.307,98.154 212.648,110.877 203.473,120.102C194.297,129.327 181.603,135.056 167.578,135.094C153.553,135.132 140.832,129.473 131.606,120.298C122.38,111.122 116.654,98.431 116.616,84.405C116.577,70.379 122.235,57.656 131.411,48.431C140.587,39.206 153.276,33.477 167.301,33.439Z" style="fill:none;stroke:white;stroke-width:0.3px;"/>
    <path d="M84.145,39.337C71.685,39.371 60.409,44.461 52.257,52.657C44.106,60.852 39.079,72.155 39.112,84.617C39.146,97.077 44.235,108.352 52.431,116.504C60.627,124.655 71.931,129.683 84.391,129.649C96.851,129.615 108.128,124.526 116.28,116.33C124.431,108.134 129.458,96.831 129.424,84.37C129.39,71.91 124.302,60.634 116.106,52.482C107.91,44.332 96.606,39.304 84.146,39.337L84.145,39.337ZM84.148,40.109C96.396,40.075 107.508,45.018 115.561,53.029C123.618,61.042 128.62,72.124 128.653,84.373C128.687,96.621 123.745,107.73 115.732,115.786C107.722,123.842 96.638,128.844 84.389,128.877C72.141,128.911 61.033,123.969 52.976,115.957C44.919,107.944 39.916,96.862 39.883,84.614C39.85,72.366 44.792,61.256 52.805,53.2C60.818,45.145 71.9,40.142 84.148,40.11L84.148,40.109Z" style="fill:none;stroke:white;stroke-width:0.3px;"/>
    <g transform="matrix(0.03497,-0.0001,0.0001,0.03497,-445.34,-22.106)">
        <path d="M15135.5,1980.67C14829.6,1980.67 14552.4,2104.86 14351.7,2305.54C14151.1,2506.22 14026.9,2783.39 14026.9,3089.34C14026.9,3395.28 14151.1,3672.45 14351.7,3873.13C14552.4,4073.81 14829.6,4198.01 15135.5,4198.01C15441.5,4198.01 15718.6,4073.81 15919.3,3873.13C16120,3672.45 16244.2,3395.28 16244.2,3089.34C16244.2,2783.39 16120,2506.22 15919.3,2305.54C15718.6,2104.86 15441.5,1980.67 15135.5,1980.67ZM15135.5,2002.73C15435.4,2002.73 15707,2124.45 15903.7,2321.14C16100.4,2517.83 16222.1,2789.48 16222.1,3089.34C16222.1,3389.2 16100.4,3660.85 15903.7,3857.53C15707,4054.22 15435.4,4175.95 15135.5,4175.95C14835.7,4175.95 14564,4054.22 14367.3,3857.53C14170.6,3660.85 14048.9,3389.2 14048.9,3089.34C14048.9,2789.48 14170.6,2517.83 14367.3,2321.14C14564,2124.45 14835.7,2002.73 15135.5,2002.73Z" style="fill:none;stroke:white;stroke-width:8.58px;"/>
    </g>
    <path d="M167.321,39.111C154.861,39.145 143.585,44.234 135.433,52.43C127.282,60.626 122.255,71.929 122.288,84.39C122.322,96.85 127.411,108.126 135.607,116.277C143.803,124.429 155.107,129.457 167.567,129.422C180.027,129.388 191.304,124.3 199.456,116.104C207.607,107.908 212.634,96.605 212.6,84.144C212.566,71.684 207.478,60.408 199.282,52.256C191.086,44.105 179.782,39.077 167.322,39.111L167.321,39.111ZM167.324,39.882C179.572,39.849 190.684,44.792 198.737,52.803C206.794,60.815 211.796,71.898 211.829,84.146C211.863,96.394 206.921,107.504 198.908,115.559C190.898,123.616 179.814,128.618 167.565,128.651C155.317,128.684 144.209,123.743 136.152,115.731C128.095,107.718 123.092,96.636 123.059,84.388C123.026,72.14 127.968,61.03 135.981,52.974C143.994,44.918 155.075,39.916 167.324,39.882Z" style="fill:none;stroke:white;stroke-width:0.3px;"/>
    <g transform="matrix(0.02915,-8e-05,8e-05,0.02915,-357.123,-4.349)">
        <path d="M15135.5,1978.46C14829,1978.46 14551.3,2102.9 14350.2,2303.98C14149.1,2505.06 14024.7,2782.78 14024.7,3089.34C14024.7,3395.89 14149.1,3673.61 14350.2,3874.69C14551.3,4075.77 14829,4200.21 15135.5,4200.21C15442.1,4200.21 15719.8,4075.77 15920.9,3874.69C16122,3673.61 16246.4,3395.89 16246.4,3089.34C16246.4,2782.78 16122,2505.06 15920.9,2303.98C15719.8,2102.9 15442.1,1978.46 15135.5,1978.46ZM15135.5,2004.93C15434.8,2004.93 15705.9,2126.41 15902.2,2322.7C16098.5,2518.99 16219.9,2790.09 16219.9,3089.34C16219.9,3388.59 16098.5,3659.69 15902.2,3855.97C15705.9,4052.26 15434.8,4173.74 15135.5,4173.74C14836.3,4173.74 14565.2,4052.26 14368.9,3855.97C14172.6,3659.69 14051.1,3388.59 14051.1,3089.34C14051.1,2790.09 14172.6,2518.99 14368.9,2322.7C14565.2,2126.41 14836.3,2004.93 15135.5,2004.93Z" style="fill:none;stroke:white;stroke-width:10.29px;"/>
    </g>
    <g transform="matrix(0.03497,-0.0001,0.0001,0.03497,-362.164,-22.333)">
        <path d="M15135.5,1980.67C14829.6,1980.67 14552.4,2104.86 14351.7,2305.54C14151.1,2506.22 14026.9,2783.39 14026.9,3089.34C14026.9,3395.28 14151.1,3672.45 14351.7,3873.13C14552.4,4073.81 14829.6,4198.01 15135.5,4198.01C15441.5,4198.01 15718.6,4073.81 15919.3,3873.13C16120,3672.45 16244.2,3395.28 16244.2,3089.34C16244.2,2783.39 16120,2506.22 15919.3,2305.54C15718.6,2104.86 15441.5,1980.67 15135.5,1980.67ZM15135.5,2002.73C15435.4,2002.73 15707,2124.45 15903.7,2321.14C16100.4,2517.83 16222.1,2789.48 16222.1,3089.34C16222.1,3389.2 16100.4,3660.85 15903.7,3857.53C15707,4054.22 15435.4,4175.95 15135.5,4175.95C14835.7,4175.95 14564,4054.22 14367.3,3857.53C14170.6,3660.85 14048.9,3389.2 14048.9,3089.34C14048.9,2789.48 14170.6,2517.83 14367.3,2321.14C14564,2124.45 14835.7,2002.73 15135.5,2002.73Z" style="fill:none;stroke:white;stroke-width:8.58px;"/>
    </g>
    <g transform="matrix(0.02332,-6e-05,6e-05,0.02332,-268.836,13.42)">
        <path d="M15135.5,1975.16C14828.1,1975.16 14549.5,2099.97 14347.8,2301.64C14146.2,2503.32 14021.3,2781.87 14021.3,3089.34C14021.3,3396.8 14146.2,3675.35 14347.8,3877.03C14549.5,4078.71 14828.1,4203.52 15135.5,4203.52C15443,4203.52 15721.5,4078.71 15923.2,3877.03C16124.9,3675.35 16249.7,3396.8 16249.7,3089.34C16249.7,2781.87 16124.9,2503.32 15923.2,2301.64C15721.5,2099.97 15443,1975.16 15135.5,1975.16ZM15135.5,2008.24C15433.9,2008.24 15704.1,2129.35 15899.8,2325.04C16095.5,2520.73 16216.6,2791 16216.6,3089.34C16216.6,3387.67 16095.5,3657.95 15899.8,3853.64C15704.1,4049.32 15433.9,4170.43 15135.5,4170.43C14837.2,4170.43 14566.9,4049.32 14371.2,3853.64C14175.5,3657.95 14054.4,3387.67 14054.4,3089.34C14054.4,2791 14175.5,2520.73 14371.2,2325.04C14566.9,2129.35 14837.2,2008.24 15135.5,2008.24Z" style="fill:none;stroke:white;stroke-width:12.87px;"/>
    </g>
    <g transform="matrix(0.01749,-5e-05,5e-05,0.01749,-180.562,31.187)">
        <path d="M15135.5,1969.64C14826.5,1969.64 14546.6,2095.07 14343.9,2297.74C14141.3,2500.42 14015.8,2780.35 14015.8,3089.34C14015.8,3398.33 14141.3,3678.25 14343.9,3880.93C14546.6,4083.61 14826.5,4209.03 15135.5,4209.03C15444.5,4209.03 15724.4,4083.61 15927.1,3880.93C16129.8,3678.25 16255.2,3398.33 16255.2,3089.34C16255.2,2780.35 16129.8,2500.42 15927.1,2297.74C15724.4,2095.07 15444.5,1969.64 15135.5,1969.64ZM15135.5,2013.76C15432.3,2013.76 15701.2,2134.25 15895.9,2328.94C16090.6,2523.63 16211.1,2792.52 16211.1,3089.34C16211.1,3386.15 16090.6,3655.05 15895.9,3849.74C15701.2,4044.43 15432.3,4164.92 15135.5,4164.92C14838.7,4164.92 14569.8,4044.43 14375.1,3849.74C14180.4,3655.05 14059.9,3386.15 14059.9,3089.34C14059.9,2792.52 14180.4,2523.63 14375.1,2328.94C14569.8,2134.25 14838.7,2013.76 15135.5,2013.76Z" style="fill:none;stroke:white;stroke-width:17.15px;"/>
    </g>
    <g transform="matrix(0.02915,-8e-05,8e-05,0.02915,-273.947,-4.575)">
        <path d="M15135.5,1978.46C14829,1978.46 14551.3,2102.9 14350.2,2303.98C14149.1,2505.06 14024.7,2782.78 14024.7,3089.34C14024.7,3395.89 14149.1,3673.61 14350.2,3874.69C14551.3,4075.77 14829,4200.21 15135.5,4200.21C15442.1,4200.21 15719.8,4075.77 15920.9,3874.69C16122,3673.61 16246.4,3395.89 16246.4,3089.34C16246.4,2782.78 16122,2505.06 15920.9,2303.98C15719.8,2102.9 15442.1,1978.46 15135.5,1978.46ZM15135.5,2004.93C15434.8,2004.93 15705.9,2126.41 15902.2,2322.7C16098.5,2518.99 16219.9,2790.09 16219.9,3089.34C16219.9,3388.59 16098.5,3659.69 15902.2,3855.97C15705.9,4052.26 15434.8,4173.74 15135.5,4173.74C14836.3,4173.74 14565.2,4052.26 14368.9,3855.97C14172.6,3659.69 14051.1,3388.59 14051.1,3089.34C14051.1,2790.09 14172.6,2518.99 14368.9,2322.7C14565.2,2126.41 14836.3,2004.93 15135.5,2004.93Z" style="fill:none;stroke:white;stroke-width:10.29px;"/>
    </g>
    <g transform="matrix(0.01167,-3e-05,3e-05,0.01166,-92.403,48.962)">
        <path d="M15135.5,1958.61C14823.6,1958.61 14541,2085.2 14336.3,2289.77C14131.6,2494.46 14004.8,2777.22 14004.8,3089.34C14004.8,3401.46 14131.6,3684.21 14336.3,3888.9C14541,4093.47 14823.6,4220.07 15135.5,4220.07C15447.5,4220.07 15730.1,4093.47 15934.7,3888.9C16139.5,3684.21 16266.2,3401.46 16266.2,3089.34C16266.2,2777.22 16139.5,2494.46 15934.7,2289.77C15730.1,2085.2 15447.5,1958.61 15135.5,1958.61ZM15135.5,2024.79C15429.2,2024.79 15695.3,2143.99 15888,2336.6C16080.8,2529.3 16200.1,2795.49 16200.1,3089.34C16200.1,3383.18 16080.8,3649.37 15888,3842.08C15695.3,4034.69 15429.2,4153.89 15135.5,4153.89C14841.8,4153.89 14575.7,4034.69 14383.1,3842.08C14190.3,3649.37 14071,3383.18 14071,3089.34C14071,2795.49 14190.3,2529.3 14383.1,2336.6C14575.7,2143.99 14841.8,2024.79 15135.5,2024.79Z" style="fill:none;stroke:white;stroke-width:25.73px;"/>
    </g>
    <g transform="matrix(0.00583,-2e-05,2e-05,0.00583,-4.072,66.725)">
        <circle cx="15135.5" cy="3089.34" r="1097.64" style="fill:white;"/>
    </g>
    <g transform="matrix(0.02332,-6e-05,6e-05,0.02332,-185.66,13.193)">
        <path d="M15135.5,1975.16C14828.1,1975.16 14549.5,2099.97 14347.8,2301.64C14146.2,2503.32 14021.3,2781.87 14021.3,3089.34C14021.3,3396.8 14146.2,3675.35 14347.8,3877.03C14549.5,4078.71 14828.1,4203.52 15135.5,4203.52C15443,4203.52 15721.5,4078.71 15923.2,3877.03C16124.9,3675.35 16249.7,3396.8 16249.7,3089.34C16249.7,2781.87 16124.9,2503.32 15923.2,2301.64C15721.5,2099.97 15443,1975.16 15135.5,1975.16ZM15135.5,2008.24C15433.9,2008.24 15704.1,2129.35 15899.8,2325.04C16095.5,2520.73 16216.6,2791 16216.6,3089.34C16216.6,3387.67 16095.5,3657.95 15899.8,3853.64C15704.1,4049.32 15433.9,4170.43 15135.5,4170.43C14837.2,4170.43 14566.9,4049.32 14371.2,3853.64C14175.5,3657.95 14054.4,3387.67 14054.4,3089.34C14054.4,2791 14175.5,2520.73 14371.2,2325.04C14566.9,2129.35 14837.2,2008.24 15135.5,2008.24Z" style="fill:none;stroke:white;stroke-width:12.87px;"/>
    </g>
    <g transform="matrix(0.01749,-5e-05,5e-05,0.01749,-97.386,30.962)">
        <path d="M15135.5,1969.64C14826.5,1969.64 14546.6,2095.07 14343.9,2297.74C14141.3,2500.42 14015.8,2780.35 14015.8,3089.34C14015.8,3398.33 14141.3,3678.25 14343.9,3880.93C14546.6,4083.61 14826.5,4209.03 15135.5,4209.03C15444.5,4209.03 15724.4,4083.61 15927.1,3880.93C16129.8,3678.25 16255.2,3398.33 16255.2,3089.34C16255.2,2780.35 16129.8,2500.42 15927.1,2297.74C15724.4,2095.07 15444.5,1969.64 15135.5,1969.64ZM15135.5,2013.76C15432.3,2013.76 15701.2,2134.25 15895.9,2328.94C16090.6,2523.63 16211.1,2792.52 16211.1,3089.34C16211.1,3386.15 16090.6,3655.05 15895.9,3849.74C15701.2,4044.43 15432.3,4164.92 15135.5,4164.92C14838.7,4164.92 14569.8,4044.43 14375.1,3849.74C14180.4,3655.05 14059.9,3386.15 14059.9,3089.34C14059.9,2792.52 14180.4,2523.63 14375.1,2328.94C14569.8,2134.25 14838.7,2013.76 15135.5,2013.76Z" style="fill:none;stroke:white;stroke-width:17.15px;"/>
    </g>
    <g transform="matrix(0.01167,-3e-05,3e-05,0.01166,-9.226,48.735)">
        <path d="M15135.5,1958.61C14823.6,1958.61 14541,2085.2 14336.3,2289.77C14131.6,2494.46 14004.8,2777.22 14004.8,3089.34C14004.8,3401.46 14131.6,3684.21 14336.3,3888.9C14541,4093.47 14823.6,4220.07 15135.5,4220.07C15447.5,4220.07 15730.1,4093.47 15934.7,3888.9C16139.5,3684.21 16266.2,3401.46 16266.2,3089.34C16266.2,2777.22 16139.5,2494.46 15934.7,2289.77C15730.1,2085.2 15447.5,1958.61 15135.5,1958.61ZM15135.5,2024.79C15429.2,2024.79 15695.3,2143.99 15888,2336.6C16080.8,2529.3 16200.1,2795.49 16200.1,3089.34C16200.1,3383.18 16080.8,3649.37 15888,3842.08C15695.3,4034.69 15429.2,4153.89 15135.5,4153.89C14841.8,4153.89 14575.7,4034.69 14383.1,3842.08C14190.3,3649.37 14071,3383.18 14071,3089.34C14071,2795.49 14190.3,2529.3 14383.1,2336.6C14575.7,2143.99 14841.8,2024.79 15135.5,2024.79Z" style="fill:none;stroke:white;stroke-width:25.73px;"/>
    </g>
    <g transform="matrix(0.00583,-2e-05,2e-05,0.00583,79.09,66.499)">
        <circle cx="15135.5" cy="3089.34" r="1097.64" style="fill:none;stroke:white;stroke-width:171.48px;"/>
        <path d="M15135.5,1925.53C14814.5,1925.53 14523.6,2055.81 14313,2266.37C14102.2,2477.05 13971.8,2768.08 13971.8,3089.34C13971.8,3410.59 14102.2,3701.63 14313,3912.31C14523.6,4122.86 14814.5,4253.15 15135.5,4253.15C15456.6,4253.15 15747.5,4122.86 15958.1,3912.31C16168.9,3701.63 16299.3,3410.59 16299.3,3089.34C16299.3,2768.08 16168.9,2477.05 15958.1,2266.37C15747.5,2055.81 15456.6,1925.53 15135.5,1925.53ZM15135.5,2057.87C15420.1,2057.87 15677.9,2173.37 15864.6,2360C16051.4,2546.72 16167,2804.63 16167,3089.34C16167,3374.05 16051.4,3631.96 15864.6,3818.67C15677.9,4005.3 15420.1,4120.8 15135.5,4120.8C14850.9,4120.8 14593.1,4005.3 14406.4,3818.67C14219.6,3631.96 14104,3374.05 14104,3089.34C14104,2804.63 14219.6,2546.72 14406.4,2360C14593.1,2173.37 14850.9,2057.87 15135.5,2057.87Z" style="fill:none;stroke:white;stroke-width:171.48px;"/>
    </g>
</svg>
